<svg xmlns="http://www.w3.org/2000/svg" width="144" height="144" viewBox="0 0 38.1 38.1"><path d="M18.972 2.117A16.933 16.933 0 002.117 19.05 16.933 16.933 0 0019.05 35.983 16.933 16.933 0 0035.983 19.05 16.933 16.933 0 0019.05 2.117a16.933 16.933 0 00-.078 0zm.034 2.646a14.287 14.287 0 01.044 0A14.287 14.287 0 0133.337 19.05 14.287 14.287 0 0119.05 33.337 14.287 14.287 0 014.763 19.05 14.287 14.287 0 0119.006 4.763z"/><circle cx="19.537" cy="18.875" fill="#fea"/><path d="M31.63 19.658a11.113 11.113 0 01-3.256 7.857l-7.857-7.857zM19.658 6.47a11.113 11.113 0 017.857 3.256l-7.857 7.857zm-9.073 3.256a11.113 11.113 0 017.857-3.255v11.112zM6.47 18.442a11.113 11.113 0 013.256-7.857l7.857 7.857zm3.256 9.073a11.113 11.113 0 01-3.255-7.857h11.112zm8.716 4.115a11.113 11.113 0 01-7.857-3.256l7.857-7.857zm9.073-3.256a11.113 11.113 0 01-7.857 3.255V20.517z"/></svg>